<?xml version="1.0" encoding="UTF-8"?>
<svg version="1.1" xmlns="http://www.w3.org/2000/svg" width="32" height="32">
<path d="M0 0 C1.48831242 0.00667405 2.97660807 0.01863442 4.46484375 0.03515625 C5.22345703 0.03966797 5.98207031 0.04417969 6.76367188 0.04882812 C8.64326246 0.06064945 10.52281274 0.07858547 12.40234375 0.09765625 C12.52734375 5.84765625 12.52734375 5.84765625 11.40234375 8.09765625 C12.06234375 8.09765625 12.72234375 8.09765625 13.40234375 8.09765625 C13.40234375 9.74765625 13.40234375 11.39765625 13.40234375 13.09765625 C12.41234375 13.42765625 11.42234375 13.75765625 10.40234375 14.09765625 C11.39234375 14.42765625 12.38234375 14.75765625 13.40234375 15.09765625 C13.40234375 16.74765625 13.40234375 18.39765625 13.40234375 20.09765625 C14.04171875 20.22140625 14.68109375 20.34515625 15.33984375 20.47265625 C16.36078125 20.78203125 16.36078125 20.78203125 17.40234375 21.09765625 C18.40234375 23.09765625 18.40234375 23.09765625 18.40234375 32.09765625 C7.84234375 32.09765625 -2.71765625 32.09765625 -13.59765625 32.09765625 C-13.59765625 29.12765625 -13.59765625 26.15765625 -13.59765625 23.09765625 C-12.60765625 22.10765625 -11.61765625 21.11765625 -10.59765625 20.09765625 C-9.93765625 20.09765625 -9.27765625 20.09765625 -8.59765625 20.09765625 C-8.59765625 18.44765625 -8.59765625 16.79765625 -8.59765625 15.09765625 C-7.60765625 14.76765625 -6.61765625 14.43765625 -5.59765625 14.09765625 C-6.58765625 13.76765625 -7.57765625 13.43765625 -8.59765625 13.09765625 C-8.59765625 11.44765625 -8.59765625 9.79765625 -8.59765625 8.09765625 C-7.60765625 8.09765625 -6.61765625 8.09765625 -5.59765625 8.09765625 C-5.45328125 6.96328125 -5.30890625 5.82890625 -5.16015625 4.66015625 C-4.44338628 0.12061309 -4.44338628 0.12061309 0 0 Z " fill="#8AC1FC" transform="translate(13.59765625,-0.09765625)"/>
<path d="M0 0 C1.48831242 0.00667405 2.97660807 0.01863442 4.46484375 0.03515625 C5.22345703 0.03966797 5.98207031 0.04417969 6.76367188 0.04882812 C8.64326246 0.06064945 10.52281274 0.07858547 12.40234375 0.09765625 C12.52734375 5.84765625 12.52734375 5.84765625 11.40234375 8.09765625 C12.06234375 8.09765625 12.72234375 8.09765625 13.40234375 8.09765625 C13.40234375 9.74765625 13.40234375 11.39765625 13.40234375 13.09765625 C9.76446321 15.38952099 6.64051525 15.3656146 2.40234375 15.34765625 C1.18546875 15.3528125 -0.03140625 15.35796875 -1.28515625 15.36328125 C-4.35054416 15.11747184 -6.03428577 14.71257965 -8.59765625 13.09765625 C-8.59765625 11.44765625 -8.59765625 9.79765625 -8.59765625 8.09765625 C-7.60765625 8.09765625 -6.61765625 8.09765625 -5.59765625 8.09765625 C-5.45328125 6.96328125 -5.30890625 5.82890625 -5.16015625 4.66015625 C-4.44338628 0.12061309 -4.44338628 0.12061309 0 0 Z " fill="#CD8178" transform="translate(13.59765625,-0.09765625)"/>
<path d="M0 0 C5.94 0 11.88 0 18 0 C18 1.65 18 3.3 18 5 C18.639375 5.12375 19.27875 5.2475 19.9375 5.375 C20.9584375 5.684375 20.9584375 5.684375 22 6 C23.71466036 9.42932071 23.05404056 13.21716065 23 17 C17.72 17 12.44 17 7 17 C7.875 7.375 7.875 7.375 9 4 C8.34 4 7.68 4 7 4 C7 3.01 7 2.02 7 1 C4.69 1 2.38 1 0 1 C0 0.67 0 0.34 0 0 Z " fill="#749DF7" transform="translate(9,15)"/>
<path d="M0 0 C1.48831242 0.00667405 2.97660807 0.01863442 4.46484375 0.03515625 C5.22345703 0.03966797 5.98207031 0.04417969 6.76367188 0.04882812 C8.64326246 0.06064945 10.52281274 0.07858547 12.40234375 0.09765625 C12.52734375 5.84765625 12.52734375 5.84765625 11.40234375 8.09765625 C5.79234375 8.09765625 0.18234375 8.09765625 -5.59765625 8.09765625 C-4.45813585 0.12101346 -4.45813585 0.12101346 0 0 Z " fill="#614D8C" transform="translate(13.59765625,-0.09765625)"/>
<path d="M0 0 C3.63 0 7.26 0 11 0 C11 2.31 11 4.62 11 7 C3.57142857 7.28571429 3.57142857 7.28571429 0 5 C0 3.35 0 1.7 0 0 Z " fill="#E1958B" transform="translate(5,8)"/>
<path d="M0 0 C1.32 0.33 2.64 0.66 4 1 C5.20272819 3.40545638 5.10071472 4.94996953 5.0625 7.625 C5.05347656 8.44226562 5.04445313 9.25953125 5.03515625 10.1015625 C5.02355469 10.72804688 5.01195312 11.35453125 5 12 C3.35 12 1.7 12 0 12 C0 8.04 0 4.08 0 0 Z " fill="#FF4D88" transform="translate(27,20)"/>
<path d="M0 0 C0 3.96 0 7.92 0 12 C-1.65 12 -3.3 12 -5 12 C-5.08131463 10.56344146 -5.13933559 9.1255517 -5.1875 7.6875 C-5.22230469 6.88699219 -5.25710937 6.08648437 -5.29296875 5.26171875 C-5 3 -5 3 -3.61328125 1.20703125 C-2 0 -2 0 0 0 Z " fill="#FF80AA" transform="translate(5,20)"/>
<path d="M0 0 C1.32 0 2.64 0 4 0 C4 1.65 4 3.3 4 5 C2.68 5 1.36 5 0 5 C0 3.35 0 1.7 0 0 Z " fill="#C56E58" transform="translate(23,8)"/>
<path d="M0 0 C1.32 0 2.64 0 4 0 C4 1.65 4 3.3 4 5 C2.68 5 1.36 5 0 5 C0 3.35 0 1.7 0 0 Z " fill="#D58678" transform="translate(5,8)"/>
<path d="M0 0 C0.66 0 1.32 0 2 0 C1.34 2.64 0.68 5.28 0 8 C-0.66 8 -1.32 8 -2 8 C-1.125 1.125 -1.125 1.125 0 0 Z " fill="#C7DDF0" transform="translate(16,20)"/>
</svg>
